# xmcd CD database file
#
# Track frame offsets:
#	150
#	22095
#	42045
#	65095
#	77097
#	98527
#	122360
#	143050
#	164470
#	184970
#	205095
#	228857
#	254385
#	290882
#	359175
#
# Disc length: 4795 seconds
#
# Revision: 0
# Processed by: cddbd v1.5.1PL0 Copyright (c) Steve Scherf et al.
# Submitted via: CDex 1.50
#
DISCID=de12b90f
DTITLE=Keito Blow - Superhero
DYEAR=2004
DGENRE=Vocal
TTITLE0=Superhero
TTITLE1=Carol
TTITLE2=Cherish
TTITLE3=rinding in the rain
TTITLE4=Top
TTITLE5=ego
TTITLE6=hideout
TTITLE7=dying forest
TTITLE8=The day you went away
TTITLE9=Just kidding
TTITLE10=don't go away
TTITLE11=Cruel sun
TTITLE12=ガラスの靴
TTITLE13=糞
TTITLE14=糞２
EXTD=YEAR: 2004
EXTT0=
EXTT1=
EXTT2=
EXTT3=
EXTT4=
EXTT5=
EXTT6=
EXTT7=
EXTT8=
EXTT9=
EXTT10=
EXTT11=
EXTT12=
EXTT13=
EXTT14=
PLAYORDER=
